<svg width="365" height="90" viewBox="0 0 365 90" fill="none" xmlns="http://www.w3.org/2000/svg">
<path d="M87.398 71.552C84.822 71.552 82.3533 71.2147 79.992 70.54C77.6307 69.8347 75.7293 68.93 74.288 67.826L76.818 62.214C78.198 63.1953 79.8233 64.008 81.694 64.652C83.5953 65.2653 85.512 65.572 87.444 65.572C88.916 65.572 90.0967 65.434 90.986 65.158C91.906 64.8513 92.5807 64.4373 93.01 63.916C93.4393 63.3947 93.654 62.7967 93.654 62.122C93.654 61.2633 93.3167 60.5887 92.642 60.098C91.9673 59.5767 91.078 59.1627 89.974 58.856C88.87 58.5187 87.6433 58.212 86.294 57.936C84.9753 57.6293 83.6413 57.2613 82.292 56.832C80.9733 56.4027 79.762 55.8507 78.658 55.176C77.554 54.5013 76.6493 53.612 75.944 52.508C75.2693 51.404 74.932 49.9933 74.932 48.276C74.932 46.436 75.4227 44.7647 76.404 43.262C77.416 41.7287 78.9187 40.5173 80.912 39.628C82.936 38.708 85.466 38.248 88.502 38.248C90.526 38.248 92.5193 38.4933 94.482 38.984C96.4447 39.444 98.1773 40.1493 99.68 41.1L97.38 46.758C95.8773 45.8993 94.3747 45.2707 92.872 44.872C91.3693 44.4427 89.8973 44.228 88.456 44.228C87.0147 44.228 85.834 44.3967 84.914 44.734C83.994 45.0713 83.3347 45.516 82.936 46.068C82.5373 46.5893 82.338 47.2027 82.338 47.908C82.338 48.736 82.6753 49.4107 83.35 49.932C84.0247 50.4227 84.914 50.8213 86.018 51.128C87.122 51.4347 88.3333 51.7413 89.652 52.048C91.0013 52.3547 92.3353 52.7073 93.654 53.106C95.0033 53.5047 96.23 54.0413 97.334 54.716C98.438 55.3907 99.3273 56.28 100.002 57.384C100.707 58.488 101.06 59.8833 101.06 61.57C101.06 63.3793 100.554 65.0353 99.542 66.538C98.53 68.0407 97.012 69.252 94.988 70.172C92.9947 71.092 90.4647 71.552 87.398 71.552ZM101.92 71L116.272 38.8H123.632L138.03 71H130.21L118.434 42.572H121.378L109.556 71H101.92ZM109.096 64.1L111.074 58.442H127.634L129.658 64.1H109.096ZM148.041 63.64L147.627 55.038L163.037 38.8H171.317L157.425 53.75L153.285 58.166L148.041 63.64ZM141.371 71V38.8H148.777V71H141.371ZM163.405 71L151.951 56.97L156.827 51.68L172.099 71H163.405ZM189.278 71.552C184.709 71.552 181.136 70.2793 178.56 67.734C175.984 65.1887 174.696 61.5547 174.696 56.832V38.8H182.148V56.556C182.148 59.6227 182.777 61.8307 184.034 63.18C185.292 64.5293 187.055 65.204 189.324 65.204C191.594 65.204 193.357 64.5293 194.614 63.18C195.872 61.8307 196.5 59.6227 196.5 56.556V38.8H203.86V56.832C203.86 61.5547 202.572 65.1887 199.996 67.734C197.42 70.2793 193.848 71.552 189.278 71.552ZM224.252 71V38.8H230.416L244.124 61.524H240.858L254.336 38.8H260.454L260.546 71H253.554L253.508 49.518H254.796L244.032 67.596H240.674L229.68 49.518H231.244V71H224.252ZM263.953 71L278.305 38.8H285.665L300.063 71H292.243L280.467 42.572H283.411L271.589 71H263.953ZM271.129 64.1L273.107 58.442H289.667L291.691 64.1H271.129ZM310.012 71.552C307.834 71.552 305.826 71.1533 303.986 70.356C302.176 69.528 300.689 68.3627 299.524 66.86L303.664 61.892C304.553 63.0573 305.488 63.9467 306.47 64.56C307.451 65.1427 308.509 65.434 309.644 65.434C312.68 65.434 314.198 63.6553 314.198 60.098V44.78H302.882V38.8H321.604V59.684C321.604 63.6707 320.622 66.6453 318.66 68.608C316.697 70.5707 313.814 71.552 310.012 71.552ZM343.27 71.552C338.701 71.552 335.128 70.2793 332.552 67.734C329.976 65.1887 328.688 61.5547 328.688 56.832V38.8H336.14V56.556C336.14 59.6227 336.769 61.8307 338.026 63.18C339.284 64.5293 341.047 65.204 343.316 65.204C345.586 65.204 347.349 64.5293 348.606 63.18C349.864 61.8307 350.492 59.6227 350.492 56.556V38.8H357.852V56.832C357.852 61.5547 356.564 65.1887 353.988 67.734C351.412 70.2793 347.84 71.552 343.27 71.552Z" fill="#43429A"/>
<path d="M46.6613 49.214L47.5555 49.2994L49.8317 49.8117L52.1892 50.5801L54.1402 51.4339L55.6847 52.2877L56.9041 53.1415L57.717 53.8245L58.6925 54.7637L59.4242 55.7029L60.1558 56.8982L60.8874 58.5205L61.5377 60.655L61.9442 62.7041L62.1881 64.4971L62.2694 65.607V67.4L61.9442 69.4491L61.4564 71.2421L60.8061 72.6082L59.8306 74.2304L59.1803 75.0842L58.2048 76.2795L57.4731 77.0479L56.5789 77.8164L55.4409 78.6702L53.3273 79.9509L51.4576 80.8047L49.8317 81.3169L47.7181 81.7438L45.6858 82H1.05661L0.812737 81.8292L0.731445 81.4877L1.1379 80.7193L2.03211 79.4386L3.08891 77.8164L4.22699 76.1088L5.52766 74.145L6.66575 72.4374L9.26709 68.5099L9.59226 68.1684H13.982L39.5077 68.4245H44.1413L45.3607 68.083L46.3362 67.6561L47.0678 67.0585L47.5555 66.4608L47.7994 65.9485L47.8807 64.5824L47.393 63.8994L46.2549 63.131L45.1981 62.7041L44.2226 62.5333H40.4019L20.6479 62.7895H16.8272L14.7136 62.5333L12.5188 62.1064L10.649 61.5941L9.1045 60.9111L7.96642 60.2281L6.90963 59.3743L6.01541 58.5205L5.60896 58.0936L5.52766 57.6667L5.93412 57.2398L18.2905 52.0316L21.3796 50.7509L21.786 50.8362L22.4364 51.5193L23.2493 52.7146L24.3061 54.2514L25.4442 55.8737L27.5578 58.9474L27.8016 59.2889L28.2894 59.1181L30.403 58.0082L31.9475 57.1544L35.6056 55.1906L37.8005 53.9953L46.1736 49.4702L46.6613 49.214Z" fill="#43429A"/>
<path d="M52.8395 28.5521H72.5934L72.9185 28.7228L72.9998 29.2351L71.7805 31.5404L70.6424 33.5895L68.041 38.3708L66.8217 40.5907L64.2203 45.3719L63.4074 46.8234L63.2448 46.9942H62.7571L62.5132 46.6527L61.1312 42.469L60.5622 40.8468L60.0744 41.0176L58.1234 42.0421L56.5789 42.8959L53.4085 44.6035L51.5388 45.6281L32.3539 56.0445L29.6713 57.4959L28.2893 58.2643H27.8016L27.1512 57.3252L26.257 55.7883L25.0376 53.8246L23.8996 51.9462L22.5989 49.8117L22.5176 49.5556L21.1356 50.0679L4.06435 56.9836L3.00756 57.4105L1.95077 57.7521L0.650098 58.2643H0.243638L0.0810547 58.0936V57.5813L0.731389 57.1544L3.49531 55.7029L5.03986 54.8491L6.99086 53.8246L8.53541 52.9708L10.649 51.8608L12.1935 51.007L14.1445 49.9825L15.6891 49.1287L17.8027 48.0187L19.3472 47.1649L21.2982 46.1404L22.8428 45.2866L24.9564 44.1766L25.4441 44.262L26.0944 45.1158L26.9074 46.3965L28.1267 48.2749L29.1835 49.8971L29.8339 50.9217L30.972 50.2386L33.5733 48.6164L35.8495 47.1649L38.4508 45.5427L39.7515 44.6889L41.3773 43.6643L48.2058 39.31L49.8317 38.2854L54.384 35.3825L56.4976 34.0164H56.6602L56.4163 33.5895L55.2782 32.3942L54.7092 31.7111L53.8963 30.8573L53.3272 30.1743L52.5956 29.4059L52.5143 28.8082L52.8395 28.5521Z" fill="#43429A"/>
<path d="M40.7275 9H51.3767L51.7832 9.25614L52.1083 9.68304L52.1896 22.8316V35.9801L51.8645 36.4924L46.6618 39.7368L44.6295 41.0175L42.4346 42.3836L41.4591 42.9813H40.8088L40.4023 42.7251L40.2397 42.5544L40.1584 34.1871L40.0771 17.8795V9.59766L40.4836 9.08538L40.7275 9Z" fill="#E4E4E5"/>
<path d="M28.8586 20.3555H31.4599L36.4187 20.4409L39.2639 20.5263L39.6704 20.8678L39.7517 21.0386L39.833 25.0514L39.9956 39.6514V43.4935L39.4265 44.0058L37.8007 45.0304L35.8497 46.3111L33.2483 47.9333L31.6225 48.9579L30.7283 49.5555H30.078L28.127 47.5064V40.8468L28.2082 27.7836L28.2895 21.0386L28.5334 20.5263L28.8586 20.3555Z" fill="#FEFEFE"/>
<path d="M9.75512 68.5953H14.1449L22.5179 68.6807L27.0703 68.766L28.3709 68.8514L28.2897 69.7052L26.4199 78.2432L25.6883 81.5731H1.13818L1.70723 80.6339L2.68273 79.1824L3.82081 77.4748L5.12148 75.5111L6.25957 73.8035L8.86091 69.876L9.67383 68.6807L9.75512 68.5953Z" fill="#5C5AB3"/>
<path d="M14.2261 32.2234H15.608L15.8519 32.4795L15.9332 40.1637V47.9333L15.2829 48.4456L11.9499 50.2386L10.4054 51.0924L5.12139 53.9953L3.08909 55.1053L2.68263 55.0199L1.951 54.2515L1.13809 52.9708L0.650335 51.8608L0.243876 50.324L0 48.3602V46.4819L0.569043 44.262L1.13809 42.5544L2.11359 40.4199L2.92651 39.0538L3.82072 37.8585L5.28397 36.3216L6.34076 35.4678L7.88531 34.4433L9.26727 33.6749L10.7305 33.0772L12.9254 32.4795L14.2261 32.2234Z" fill="#FEFEFE"/>
<path d="M52.9213 28.9789H72.5939L72.4313 29.4058L71.212 31.7111L70.0739 33.7602L68.9358 35.8947L67.7977 37.9439L63.8957 45.1158L63.0828 46.5672H62.9202L61.5382 42.469L60.8066 40.2491H60.5627L59.0182 41.1029L55.8478 42.8105L53.6529 44.0058L48.6128 46.738L43.7353 49.3848L31.6228 55.9591L28.9402 57.4105L28.2086 57.8374H27.9647L26.8266 55.9591L24.2253 51.6901L23.3311 50.2386L22.6807 49.214V49.0433L21.2988 49.5556L17.0716 51.2632L3.98361 56.5567H3.57715L3.90232 56.3006L8.29208 54.3368L12.438 52.4585L16.9903 50.4094L21.3801 48.4456L21.2988 48.2749L21.7052 48.1895H21.9491L21.8678 48.0187L22.2743 47.9333H22.5181L22.4369 47.7626L22.8433 47.6772H23.0872L23.0059 47.5064L23.3311 47.3357L23.6562 47.4211L24.3879 47.0795L24.713 47.1649L24.9569 47.2503L25.1195 47.7626L25.2821 47.9333L25.4447 48.1895L25.6072 48.6164L27.8834 52.3731L29.1028 54.3368L29.3467 54.1661L29.6718 53.9953L30.0783 53.8246V53.6538L30.6473 53.483V53.3123L31.1351 53.1415L31.379 52.9708L31.7041 52.7146L32.1106 52.6292V52.4585L32.8422 52.2023V52.0316L33.4113 51.8608V51.6901L33.899 51.5193L34.1429 51.3485L34.468 51.1778L34.8745 51.007V50.8363L35.6061 50.5801V50.4094L36.3378 50.1532V49.9825L36.9068 49.8117L37.0694 49.5556L37.4758 49.4702L37.801 49.1287L38.2075 49.0433L38.5326 48.7871L38.9391 48.6164L39.183 48.3602L39.6707 48.1895L39.9146 47.9333L40.2398 47.848L40.4836 47.5918L40.9714 47.4211L41.2153 47.1649L41.703 46.9942L41.9469 46.738L42.1908 46.6526L42.5159 46.3965L43.0037 46.2257L43.2476 45.9696L43.7353 45.7988L43.9792 45.5427L44.3857 45.3719L45.036 45.0304L45.2799 44.7743L45.7676 44.6035L46.0115 44.3474L46.4179 44.1766L48.369 43.0667L50.2387 41.9567L58.3678 37.1754L62.1073 34.9556L70.2365 30.1743L71.9436 29.1497L52.9213 29.0643V28.9789Z" fill="#C7C6E9"/>
<path d="M16.5021 29.3205H27.3953L27.8017 29.662L27.883 29.8327V44.5181L27.3953 44.945H26.7449L26.1759 44.3474L25.363 43.152L24.8752 43.3228L22.5177 44.6889L20.5667 45.7988L19.1035 46.6526L17.3151 47.6772H16.5021L16.177 47.4211L16.0957 47.0795L16.0144 42.7251L15.9331 34.3579V29.9181L16.3396 29.4058L16.5021 29.3205Z" fill="#FEFEFE"/>
<path d="M49.0192 9.42691H51.2953L51.7018 9.76843L51.7831 24.2831V35.8948L51.4579 36.2363L48.8566 37.8585L46.5804 39.31L44.4668 40.5907L42.1906 42.0421L41.7842 42.1275L42.2719 39.7369L44.7107 28.7228L47.1494 17.6234L48.9379 9.51229L49.0192 9.42691Z" fill="#FEFEFE"/>
<path d="M21.4608 51.1778L21.8673 51.4339L22.6802 52.6292L23.737 54.1661L24.8751 55.7883L26.9887 58.862L27.7203 59.8865L29.1023 59.2035L30.4842 58.4351L30.6468 58.5205L30.5655 59.2889L29.9152 62.1918L27.2325 62.2772L20.6479 62.3626H16.7459L14.1446 62.021L12.1123 61.5941L10.4864 61.0819L9.02317 60.3988L7.88509 59.6304L7.07217 58.9474L6.25925 58.1789L5.93408 57.8374V57.6667L9.51092 56.2152L13.4942 54.5076L21.4608 51.1778Z" fill="#5C5AB3"/>
<path d="M28.8586 20.3555H31.4599L36.4187 20.4409L39.2639 20.5263L39.6704 20.8678L39.7517 21.0386L39.833 25.0514L39.9956 39.6514V43.4935L39.4265 44.0058L37.8007 45.0304L35.8497 46.3111L33.2483 47.9333L31.6225 48.9579L30.7283 49.5555H30.078L28.127 47.5064V40.8468L28.2082 27.7836L28.2895 21.0386L28.5334 20.5263L28.8586 20.3555ZM35.7684 20.9532L33.7361 30.345L31.7038 39.8222L29.8341 48.531L29.9967 48.8725L30.2405 49.1286H30.647L31.7851 48.3602L34.3864 46.738L38.6136 44.0058L39.5078 43.4082L39.5891 43.3228V40.0783L39.4265 25.4783L39.3452 21.124L39.1826 20.9532H35.7684Z" fill="#E4E4E4"/>
<path d="M14.2261 32.2234H15.608L15.8519 32.4795L15.9332 40.1637V47.9333L15.2829 48.4456L11.9499 50.2386L10.4054 51.0924L5.12139 53.9953L3.08909 55.1053L2.68263 55.0199L1.951 54.2515L1.13809 52.9708L0.650335 51.8608L0.243876 50.324L0 48.3602V46.4819L0.569043 44.262L1.13809 42.5544L2.11359 40.4199L2.92651 39.0538L3.82072 37.8585L5.28397 36.3216L6.34076 35.4678L7.88531 34.4433L9.26727 33.6749L10.7305 33.0772L12.9254 32.4795L14.2261 32.2234ZM14.2261 32.6503L12.1938 33.0772L10.3241 33.6749L9.18598 34.1871L9.10469 34.9556L7.23497 43.6643L5.28397 52.7146V53.3123L5.77172 53.1415L9.10469 51.3485L10.6492 50.4947L14.3887 48.4456L15.5267 47.7626V41.1029L15.4454 32.6503H14.2261Z" fill="#E4E4E4"/>
<path d="M46.6613 49.214L47.5555 49.2994L49.8317 49.8117L52.1892 50.5801L54.1402 51.4339L55.6847 52.2877L56.9041 53.1415L57.717 53.8245L58.6925 54.7637L59.4242 55.7029L60.1558 56.8982L60.8874 58.5205L61.5377 60.655L61.9442 62.7041L62.1881 64.4971L62.2694 65.607V67.4L61.9442 69.4491L61.4564 71.2421L60.8061 72.6082L59.8306 74.2304L59.1803 75.0842L58.2048 76.2795L57.4731 77.0479L56.5789 77.8164L55.4409 78.6702L53.3273 79.9509L51.4576 80.8047L49.8317 81.3169L47.7181 81.7438L45.6858 82H1.05661L0.812737 81.8292L0.731445 81.4877L1.1379 80.7193L2.03211 79.4386L3.08891 77.8164L4.22699 76.1088L5.52766 74.145L6.66575 72.4374L9.26709 68.5099L9.59226 68.1684H13.982L39.5077 68.4245H44.1413L45.3607 68.083L46.3362 67.6561L47.0678 67.0585L47.5555 66.4608L47.7994 65.9485L47.8807 64.5824L47.393 63.8994L46.2549 63.131L45.1981 62.7041L44.2226 62.5333H40.4019L20.6479 62.7895H16.8272L14.7136 62.5333L12.5188 62.1064L10.649 61.5941L9.1045 60.9111L7.96642 60.2281L6.90963 59.3743L6.01541 58.5205L5.60896 58.0936L5.52766 57.6667L5.93412 57.2398L18.2905 52.0316L21.3796 50.7509L21.786 50.8362L22.4364 51.5193L23.2493 52.7146L24.3061 54.2514L25.4442 55.8737L27.5578 58.9474L27.8016 59.2889L28.2894 59.1181L30.403 58.0082L31.9475 57.1544L35.6056 55.1906L37.8005 53.9953L46.1736 49.4702L46.6613 49.214ZM46.7426 49.6409L44.06 51.0924L38.5322 54.0807L33.0043 57.069L29.8339 58.7766L27.8016 59.8865L27.3952 59.4596L25.2816 56.386L24.1435 54.7637L22.0299 51.69L21.6234 51.2631L21.4609 51.1778L12.6813 54.8491L9.1045 56.386L5.93412 57.6667L6.09671 58.0936L6.74704 58.6912L7.96642 59.7158L9.34838 60.5696L10.9742 61.2526L12.8439 61.7649L15.2827 62.1918L16.7459 62.3626H20.6479L39.9141 62.1064H44.3039L45.5232 62.3626L46.58 62.7895L47.7181 63.6433L48.2059 64.3263L48.2872 64.4971V65.2655L48.1246 66.29L47.6368 67.0585L46.9865 67.7415L45.6858 68.4245L44.5477 68.7661L44.1413 68.8514H38.9386L14.1446 68.5953H9.75484L9.02321 69.6199L5.1212 75.5111L3.98312 77.2187L2.68245 79.1824L1.54436 80.89L1.1379 81.5731H45.6045L48.1246 81.2316L50.0756 80.8047L51.7827 80.207L53.815 79.1824L55.4409 78.1579L56.8228 77.0479L58.0422 75.8526L58.7738 74.9134L59.5867 73.8889L60.8061 71.669L61.2126 70.6444L61.619 69.0222L61.8629 67.3146V65.6924L61.619 63.3017L61.2126 61.0819L60.7248 59.3743L60.2371 58.0936L59.5867 56.7275L58.7738 55.5321L58.0422 54.6783L57.3919 54.0807L56.1725 53.1415L54.9531 52.3731L52.9208 51.3485L50.8885 50.5801L48.7749 49.9824L47.1491 49.6409H46.7426Z" fill="#040408"/>
<path d="M52.8395 28.5521H72.5934L72.9185 28.7228L72.9998 29.2351L71.7805 31.5404L70.6424 33.5895L68.041 38.3708L66.8217 40.5907L64.2203 45.3719L63.4074 46.8234L63.2448 46.9942H62.7571L62.5132 46.6527L61.1312 42.469L60.5622 40.8468L60.0744 41.0176L58.1234 42.0421L56.5789 42.8959L53.4085 44.6035L51.5388 45.6281L32.3539 56.0445L29.6713 57.4959L28.2893 58.2643H27.8016L27.1512 57.3252L26.257 55.7883L25.0376 53.8246L23.8996 51.9462L22.5989 49.8117L22.5176 49.5556L21.1356 50.0679L4.06435 56.9836L3.00756 57.4105L1.95077 57.7521L0.650098 58.2643H0.243638L0.0810547 58.0936V57.5813L0.731389 57.1544L3.49531 55.7029L5.03986 54.8491L6.99086 53.8246L8.53541 52.9708L10.649 51.8608L12.1935 51.007L14.1445 49.9825L15.6891 49.1287L17.8027 48.0187L19.3472 47.1649L21.2982 46.1404L22.8428 45.2866L24.9564 44.1766L25.4441 44.262L26.0944 45.1158L26.9074 46.3965L28.1267 48.2749L29.1835 49.8971L29.8339 50.9217L30.972 50.2386L33.5733 48.6164L35.8495 47.1649L38.4508 45.5427L39.7515 44.6889L41.3773 43.6643L48.2058 39.31L49.8317 38.2854L54.384 35.3825L56.4976 34.0164H56.6602L56.4163 33.5895L55.2782 32.3942L54.7092 31.7111L53.8963 30.8573L53.3272 30.1743L52.5956 29.4059L52.5143 28.8082L52.8395 28.5521ZM52.9208 28.979L53.0833 29.3205L53.8963 30.1743L54.4653 30.8573L55.2782 31.7111L55.8473 32.3942L56.5789 33.1626L57.1479 33.8456L57.2292 34.1018L55.8473 34.9556L49.0187 39.31L47.3929 40.3345L45.1167 41.786L43.4909 42.8105L41.2147 44.262L38.6134 45.8842L34.061 48.7872L31.4597 50.4094L29.8339 51.4339H29.6713L28.3706 49.3848L27.3951 47.9334L26.0944 45.8842L25.2002 44.6035L24.7125 44.7743L22.1111 46.1404L20.5666 46.9942L18.6156 48.0187L17.071 48.8725L15.12 49.8971L13.5755 50.7509L11.6245 51.7755L10.08 52.6293L7.96636 53.7392L6.42182 54.593L4.30823 55.7029L2.76369 56.5567L0.975265 57.4959L1.30043 57.5813L2.76369 56.9836L3.82048 56.6421L5.44632 55.9591L10.08 54.0807L14.3071 52.3731L22.355 49.1287L22.6802 49.0433L22.8428 49.4702L24.0621 51.4339L27.9642 57.8374L28.3706 57.7521L30.2403 56.7275L42.3528 50.1532L49.7504 46.1404L54.7905 43.4082L59.8306 40.676L60.7248 40.1638L61.0499 41.0176L62.8384 46.3965L62.9196 46.5673L63.1635 46.4819L64.3829 44.1766L65.521 42.1275L66.6591 39.993L67.7972 37.9439L71.6992 30.7719L72.5934 29.1497V28.979H52.9208Z" fill="#06060D"/>
<path d="M16.5021 29.3205H27.3953L27.8017 29.662L27.883 29.8327V44.5181L27.3953 44.945H26.7449L26.1759 44.3474L25.363 43.152L24.8752 43.3228L22.5177 44.6889L20.5667 45.7988L19.1035 46.6526L17.3151 47.6772H16.5021L16.177 47.4211L16.0957 47.0795L16.0144 42.7251L15.9331 34.3579V29.9181L16.3396 29.4058L16.5021 29.3205ZM21.2171 29.7474L18.697 41.6152L17.6402 46.5673V46.9088L18.128 46.738L20.4854 45.3719L22.4365 44.262L24.3062 43.152L25.4442 42.5544L26.4198 43.9205L26.9075 44.5181H27.314L27.4765 44.3474V29.9181L27.314 29.7474H21.2171Z" fill="#E4E4E5"/>
<path d="M25.038 44.6035L25.3631 44.7743L26.9077 47.165L27.9645 48.7872L29.1839 50.6655L29.6716 51.434L30.1594 51.2632L30.8097 50.8363H30.9723V51.434L30.7284 52.5439L30.6471 53.3977L30.8097 53.4831L30.4032 53.6538L30.2406 53.7392L29.9155 53.9954L29.509 54.0807V54.2515L29.1026 54.4223L27.8019 52.3731L25.5257 48.6164L25.3631 48.1895L25.1193 47.9334L24.9567 47.5065L24.6315 47.165L24.2251 47.2503L23.656 47.5065L23.3308 47.4211L23.1683 47.5065L23.2495 47.6772L22.8431 47.7626H22.5992L22.6805 47.9334L22.274 48.0188H22.0302L22.1115 48.1895L21.705 48.2749H21.4611L21.5424 48.4457L12.4377 52.5439L8.12927 54.5076L3.73951 56.4714L3.8208 56.6421L2.11367 57.2398L1.30075 57.5813L0.975586 57.4959L4.22726 55.7883L5.7718 54.9345L7.88539 53.8246L9.42994 52.9708L11.5435 51.8609L13.0881 51.0071L15.0391 49.9825L16.5836 49.1287L18.5346 48.1041L20.0792 47.2503L22.0302 46.2258L23.5747 45.372L25.038 44.6035Z" fill="#605EB2"/>
<path d="M40.7275 9H51.3767L51.7832 9.25614L52.1083 9.68304L52.1896 22.8316V35.9801L51.8645 36.4924L46.6618 39.7368L44.6295 41.0175L42.4346 42.3836L41.4591 42.9813H40.8088L40.4023 42.7251L40.2397 42.5544L40.1584 34.1871L40.0771 17.8795V9.59766L40.4836 9.08538L40.7275 9ZM40.7275 9.4269L40.4836 9.68304V16.0012L40.5649 32.3088L40.6462 42.3836L40.8088 42.5544H41.3778L43.9792 40.9322L45.605 39.9076L48.2063 38.2854L50.4825 36.8339L51.6206 36.1509L51.7832 35.8947V24.283L51.7019 9.76842L51.2954 9.4269H40.7275Z" fill="#080812"/>
<path d="M28.8586 20.3555H31.4599L36.4187 20.4409L39.2639 20.5263L39.6704 20.8678L39.7517 21.0386L39.833 25.0514L39.9956 39.6514V43.4935L39.4265 44.0058L37.8007 45.0304L35.8497 46.3111L33.2483 47.9333L31.6225 48.9579L30.7283 49.5555H30.078L28.127 47.5064V40.8468L28.2082 27.7836L28.2895 21.0386L28.5334 20.5263L28.8586 20.3555ZM28.9399 20.7824L28.696 21.0386L28.6147 29.3204L28.5334 42.3836V47.421L29.7528 48.7017L30.2405 49.1286H30.647L31.7851 48.3602L34.3864 46.738L38.6136 44.0058L39.5078 43.4082L39.5891 43.3228V40.0783L39.4265 25.4783L39.3452 21.124L39.1826 20.9532L37.8007 20.8678L31.1348 20.7824H28.9399Z" fill="#090913"/>
<path d="M14.2261 32.2234H15.608L15.8519 32.4795L15.9332 40.1637V47.9333L15.2829 48.4456L11.9499 50.2386L10.4054 51.0924L5.12139 53.9953L3.08909 55.1053L2.68263 55.0199L1.951 54.2515L1.13809 52.9708L0.650335 51.8608L0.243876 50.324L0 48.3602V46.4819L0.569043 44.262L1.13809 42.5544L2.11359 40.4199L2.92651 39.0538L3.82072 37.8585L5.28397 36.3216L6.34076 35.4678L7.88531 34.4433L9.26727 33.6749L10.7305 33.0772L12.9254 32.4795L14.2261 32.2234ZM14.2261 32.6503L12.1938 33.0772L10.3241 33.6749L8.69823 34.4433L7.31627 35.2971L6.17818 36.1509L5.36526 36.8339L4.63363 37.517L4.06459 38.2L3.25167 39.3099L2.60134 40.4199L1.78842 42.0421L0.975502 44.262L0.406459 46.4819V48.1895L0.650335 50.2386L0.975502 51.6047L1.62584 52.9708L2.35746 54.0807L2.84521 54.6784L3.33297 54.5076L5.36526 53.3977L6.90981 52.5439L9.10469 51.3485L10.6492 50.4947L14.3887 48.4456L15.5267 47.7626V41.1029L15.4454 32.6503H14.2261Z" fill="#080812"/>
<path d="M16.5021 29.3205H27.3953L27.8017 29.662L27.883 29.8327V44.5181L27.3953 44.945H26.7449L26.1759 44.3474L25.363 43.152L24.8752 43.3228L22.5177 44.6889L20.5667 45.7988L19.1035 46.6526L17.3151 47.6772H16.5021L16.177 47.4211L16.0957 47.0795L16.0144 42.7251L15.9331 34.3579V29.9181L16.3396 29.4058L16.5021 29.3205ZM16.5834 29.7474L16.3396 30.0035V33.4187L16.4209 41.7006L16.5021 47.0795L16.5834 47.2503H17.2338L19.1848 46.1404L20.648 45.2865L23.0055 43.9205L24.9565 42.8105L25.4442 42.5544L26.4198 43.9205L26.9075 44.5181H27.314L27.4765 44.3474V29.9181L27.314 29.7474H16.5834Z" fill="#05050B"/>
<path d="M3.41434 56.2152L3.57692 56.3006L3.41434 56.5567H3.8208L3.57692 56.7275L2.11367 57.2398L1.30075 57.5813L0.975586 57.4959L3.41434 56.2152Z" fill="#7977BD"/>
<path d="M7.31657 54.7637L7.56045 54.8491L5.69074 55.7029L5.44686 55.9591L3.98361 56.5567H3.57715L3.90232 56.3006L7.31657 54.7637Z" fill="#D4D4E5"/>
<path d="M6.82875 55.1053H7.07263V55.276L5.60938 55.8737L5.69067 55.6175L6.82875 55.1053Z" fill="#BFBEE5"/>
<path d="M1.95109 56.9836L2.35755 57.069L2.11367 57.2398L1.30075 57.5813L0.975586 57.4959L1.95109 56.9836Z" fill="#5F5EAF"/>
<path d="M3.41451 56.2152L3.57709 56.3006L3.41451 56.5567H3.82097V56.6421L3.17063 56.7275L2.92676 56.4714L3.41451 56.2152Z" fill="#8F8ECA"/>
</svg>
